<svg xmlns="http://www.w3.org/2000/svg" version="1.1" xmlns:xlink="http://www.w3.org/1999/xlink" xmlns:svgjs="http://svgjs.dev/svgjs" width="2000" height="1607" viewBox="0 0 2000 1607"><g transform="matrix(1,0,0,1,0,0)"><svg viewBox="0 0 448 360" data-background-color="#ffffff" preserveAspectRatio="xMidYMid meet" height="1607" width="2000" xmlns="http://www.w3.org/2000/svg" xmlns:xlink="http://www.w3.org/1999/xlink"><g id="tight-bounds" transform="matrix(1,0,0,1,0,0)"><svg viewBox="0 0 448 360" height="360" width="448"><g><svg></svg></g><g><svg viewBox="0 0 448 360" height="360" width="448"><g><path d="M193.855 44.683c1.378 0 2.494 1.116 2.495 2.494 0 1.378-1.116 2.494-2.495 2.495h-23.846l-17.167 17.167c-0.973 0.973-2.551 0.973-3.53 0-0.973-0.973-0.973-2.551 0-3.529l13.644-13.645h-40.378c-11.518 0-19.151 2.688-23.815 8.113-4.739 5.519-6.66 14.056-6.66 25.63 0 0.069 0 0.137-0.006 0.206l0.212 36.692 14.692-14.692c0.973-0.973 2.551-0.973 3.53 0 0.973 0.973 0.973 2.551 0 3.53l-18.178 18.178c0.206 35.832 0.193 71.358-0.013 107.19 25.486 25.2 50.617 50.312 75.811 75.791h25.38c1.378 0 2.494 1.116 2.495 2.495 0 1.378-1.116 2.494-2.495 2.494h-20.448l25.942 26.241 0.006-0.006c8.188 8.188 15.577 12.859 22.824 13.413 7.146 0.543 14.442-2.956 22.586-11.093l28.555-28.555h-20.722c-1.378 0-2.494-1.116-2.495-2.494 0-1.378 1.116-2.494 2.495-2.495h25.711l16.625-16.625c0.973-0.973 2.551-0.973 3.529 0 0.973 0.973 0.973 2.551 0 3.53l-13.101 13.102h40.377c11.518 0 19.151-2.688 23.815-8.113 4.739-5.519 6.66-14.056 6.66-25.63h0.013l-0.212-36.898-16.014 16.014c-0.973 0.973-2.551 0.973-3.53 0-0.973-0.973-0.973-2.551 0-3.53l19.5-19.5c-0.206-35.832-0.193-71.358 0.013-107.19-25.486-25.2-50.617-50.312-75.811-75.791h-26.147c-1.378 0-2.494-1.116-2.495-2.495 0-1.378 1.116-2.494 2.495-2.494h21.215l-25.824-26.123c-0.044-0.037-0.081-0.075-0.124-0.112-8.188-8.188-15.577-12.859-22.824-13.413-7.146-0.543-14.442 2.956-22.586 11.093l-28.555 28.555h18.858zM122.578 44.683h45.367l32.078-32.078c9.248-9.248 17.81-13.195 26.484-12.534 8.568 0.649 16.956 5.824 25.985 14.854 0.05 0.05 0.094 0.094 0.137 0.143l29.278 29.615h43.508c13.071 0 21.919 3.268 27.594 9.871 5.6 6.517 7.864 16.101 7.864 28.867 0 0.081-0.006 0.156-0.012 0.23l-0.225 39.742 28.43 28.112 0.006-0.006c9.03 9.03 14.206 17.411 14.854 25.985 0.661 8.674-3.293 17.236-12.534 26.484l-30.768 30.768 0.237 41.843h0.012c0 12.765-2.27 22.35-7.864 28.867-5.675 6.604-14.524 9.872-27.594 9.871h-45.366l-32.078 32.078c-9.248 9.248-17.81 13.195-26.484 12.534-8.568-0.649-16.956-5.824-25.985-14.854l0.006-0.006-29.421-29.758h-43.509c-13.071 0-21.919-3.268-27.594-9.872-5.6-6.517-7.864-16.101-7.863-28.866h0.012l0.231-39.972-28.293-27.969c-0.05-0.044-0.1-0.087-0.143-0.137-9.03-9.03-14.206-17.411-14.854-25.985-0.661-8.674 3.293-17.236 12.534-26.484l30.768-30.768-0.237-41.607c-0.006-0.075-0.012-0.156-0.012-0.23 0-12.765 2.27-22.35 7.864-28.867 5.675-6.604 14.524-9.872 27.594-9.871zM87.682 179.997l-0.274-47.724-27.276 27.276c-8.138 8.138-11.636 15.44-11.094 22.587 0.549 7.246 5.226 14.642 13.413 22.823 0.037 0.037 0.081 0.081 0.113 0.125l24.837 24.551 0.281-49.644zM92.303 241.483l-0.2 35.09h0.013c0 11.58 1.921 20.117 6.66 25.63 4.664 5.432 12.297 8.113 23.815 8.113h38.576l-33.55-33.936-35.308-34.903zM325.415 49.672h-38.575l33.549 33.936 35.308 34.902 0.2-34.884c-0.006-0.069-0.006-0.137-0.007-0.205 0-11.58-1.921-20.117-6.66-25.63-4.664-5.432-12.297-8.113-23.815-8.113zM360.599 130.352l-0.281 49.645 0.274 47.724 27.276-27.276c8.138-8.138 11.636-15.44 11.094-22.587-0.549-7.252-5.226-14.642-13.413-22.824l0.006-0.006-24.956-24.669z" fill="#ffffff" fill-rule="nonzero" stroke="none" stroke-width="1" stroke-linecap="butt" stroke-linejoin="miter" stroke-miterlimit="10" stroke-dasharray="" stroke-dashoffset="0" font-family="none" font-weight="none" font-size="none" text-anchor="none" style="mix-blend-mode: normal" data-fill-palette-color="tertiary"></path></g><g transform="matrix(1,0,0,1,175.2618355380234,90)"><svg viewBox="0 0 97.47632892395319 180" height="180" width="97.47632892395319"><g><svg viewBox="0 0 97.47632892395319 180" height="180" width="97.47632892395319"><g><svg viewBox="0 0 120.37505168539327 222.28483102061466" height="180" width="97.47632892395319"><g><svg viewBox="0 0 120.37505168539327 222.28483102061466" height="222.28483102061466" width="120.37505168539327"><g id="textblocktransform"><svg viewBox="0 0 120.37505168539327 222.28483102061466" height="222.28483102061466" width="120.37505168539327" id="textblock"><g><svg viewBox="0 0 120.37505168539327 178.88760000000002" height="178.88760000000002" width="120.37505168539327"><g transform="matrix(1,0,0,1,0,0)"><svg width="120.37505168539327" viewBox="4 -39.7 26.95 40.050000000000004" height="178.88760000000002" data-palette-color="#111111"><path d="M14.85-5L21.65-5Q23.5-5 24.25-6.05 25-7.1 25-8.4L25-8.4 25-31.3Q25-32.55 24.25-33.6 23.5-34.65 21.65-34.65L21.65-34.65 9.95-34.65 9.9-2.05Q9.9-0.95 9.05-0.3 8.2 0.35 6.95 0.35L6.95 0.35Q4 0.35 4-2.05L4-2.05 4-36.7Q4-38.5 4.93-39.1 5.85-39.7 7.15-39.7L7.15-39.7 22.9-39.7Q24.2-39.7 25.6-39.15 27-38.6 28.3-37.75L28.3-37.75 28.25-37.75Q29.55-36.8 30.25-35.27 30.95-33.75 30.95-31.75L30.95-31.75 30.95-8Q30.95-3.95 28.25-1.95L28.25-1.95Q26.95-1 25.58-0.48 24.2 0.05 22.9 0.05L22.9 0.05 14.5 0.05Q13.65 0.05 13.18-0.65 12.7-1.35 12.7-2.5L12.7-2.5Q12.7-5 14.85-5L14.85-5Z" opacity="1" transform="matrix(1,0,0,1,0,0)" fill="#ffffff" class="wordmark-text-0" data-fill-palette-color="primary" id="text-0"></path></svg></g></svg></g><g transform="matrix(1,0,0,1,59.58565058426967,221.11866905760002)"><svg viewBox="0 0 1.2037505168539329 1.1661619630146247" height="1.1661619630146247" width="1.2037505168539329"><g transform="matrix(1,0,0,1,0,0)"><svg width="1.2037505168539329" viewBox="-5.55 -46.35 65.65 63.6" height="1.1661619630146247" data-palette-color="#ffffff"><path d="M31.95-28.6L31.95-28.6Q36.1-28.6 38.58-27.18 41.05-25.75 41.05-23.35L41.05-23.35Q41.05-21.65 39.45-19.85 37.85-18.05 34.68-16.8 31.5-15.55 26.75-15.55L26.75-15.55Q21.1-15.55 17.03-17.45 12.95-19.35 10.78-22.53 8.6-25.7 8.6-29.5L8.6-29.5Q8.6-32.7 10.18-35.7 11.75-38.7 14.78-41.1 17.8-43.5 22.15-44.93 26.5-46.35 32.05-46.35L32.05-46.35Q37.3-46.35 41.75-44.85 46.2-43.35 49.5-40.63 52.8-37.9 54.63-34.23 56.45-30.55 56.45-26.2L56.45-26.2Q56.45-20.75 54.33-15.85 52.2-10.95 48.35-7.13 44.5-3.3 39.3-1.1 34.1 1.1 27.9 1.1L27.9 1.1Q24.9 1.1 22.5 0.45 20.1-0.2 18.05-1.05 16-1.9 14.15-2.55 12.3-3.2 10.35-3.2L10.35-3.2Q8.9-3.2 8.08-2.78 7.25-2.35 7.25-1.5L7.25-1.5Q7.25 0.7 12.35 0.7L12.35 0.7Q16.5 0.7 20.9-1.18 25.3-3.05 29.25-6.45L29.25-6.45Q32.05-8.85 34.93-11.8 37.8-14.75 40.63-17.82 43.45-20.9 46-23.65 48.55-26.4 50.65-28.4L50.65-28.4Q52.4-30.15 54.13-31.5 55.85-32.85 57.55-33.8L57.55-33.8 60.1-33.8Q58.2-33.2 55.65-31.6 53.1-30 51.05-28L51.05-28Q48.8-25.7 46.65-22.6 44.5-19.5 42.3-16.1 40.1-12.7 37.58-9.47 35.05-6.25 32.08-3.63 29.1-1 25.43 0.58 21.75 2.15 17.15 2.15L17.15 2.15Q13.65 2.15 11.35 1.78 9.05 1.4 7.9 0.63 6.75-0.15 6.75-1.4L6.75-1.4Q6.75-2.55 7.63-3.15 8.5-3.75 10.15-3.75L10.15-3.75Q12.1-3.75 14.1-3.1 16.1-2.45 18.23-1.58 20.35-0.7 22.75-0.05 25.15 0.6 27.9 0.6L27.9 0.6Q33.75 0.6 38.83-1.48 43.9-3.55 47.75-7.23 51.6-10.9 53.78-15.75 55.95-20.6 55.95-26.2L55.95-26.2Q55.95-30.45 54.15-34.05 52.35-37.65 49.13-40.3 45.9-42.95 41.53-44.4 37.15-45.85 31.95-45.85L31.95-45.85Q27.1-45.85 22.93-44.63 18.75-43.4 15.65-41.18 12.55-38.95 10.83-35.98 9.1-33 9.1-29.5L9.1-29.5Q9.1-25.55 11.38-22.53 13.65-19.5 17.65-17.78 21.65-16.05 26.8-16.05L26.8-16.05Q30.6-16.05 33.7-17.05 36.8-18.05 38.65-19.7 40.5-21.35 40.5-23.35L40.5-23.35Q40.5-25.55 38.18-26.83 35.85-28.1 31.95-28.1L31.95-28.1Q27.9-28.1 24.55-26.68 21.2-25.25 19.2-22.85 17.2-20.45 17.2-17.5L17.2-17.5Q17.2-14.95 18.85-13.03 20.5-11.1 23.48-10.03 26.45-8.95 30.4-8.95L30.4-8.95Q34.5-8.95 37.98-10.03 41.45-11.1 44.03-13.05 46.6-15 48.03-17.65 49.45-20.3 49.45-23.4L49.45-23.4Q49.45-27.25 46.98-30.13 44.5-33 40-34.58 35.5-36.15 29.5-36.15L29.5-36.15Q23.7-36.15 18.5-34.73 13.3-33.3 9-30.65 4.7-28 1.55-24.4-1.6-20.8-3.33-16.45-5.05-12.1-5.05-7.25L-5.05-7.25Q-5.05-1.95-2.98 2.45-0.9 6.85 2.93 10.05 6.75 13.25 11.98 15 17.2 16.75 23.45 16.75L23.45 16.75Q28 16.75 32.27 15.83 36.55 14.9 40.23 13.18 43.9 11.45 46.73 9.08 49.55 6.7 51.2 3.8L51.2 3.8 51.65 4.05Q49.95 7.05 47.08 9.47 44.2 11.9 40.45 13.63 36.7 15.35 32.38 16.3 28.05 17.25 23.45 17.25L23.45 17.25Q17.05 17.25 11.75 15.45 6.45 13.65 2.58 10.38-1.3 7.1-3.43 2.63-5.55-1.85-5.55-7.25L-5.55-7.25Q-5.55-12.2-3.8-16.63-2.05-21.05 1.13-24.7 4.3-28.35 8.68-31.03 13.05-33.7 18.32-35.18 23.6-36.65 29.5-36.65L29.5-36.65Q35.7-36.65 40.28-35 44.85-33.35 47.4-30.38 49.95-27.4 49.95-23.4L49.95-23.4Q49.95-20.2 48.48-17.48 47-14.75 44.38-12.73 41.75-10.7 38.18-9.58 34.6-8.45 30.4-8.45L30.4-8.45Q26.25-8.45 23.18-9.58 20.1-10.7 18.4-12.75 16.7-14.8 16.7-17.5L16.7-17.5Q16.7-20.6 18.75-23.1 20.8-25.6 24.28-27.1 27.75-28.6 31.95-28.6Z" opacity="1" transform="matrix(1,0,0,1,0,0)" fill="#ffffff" class="slogan-text-1" data-fill-palette-color="secondary" id="text-1"></path></svg></g></svg></g></svg></g></svg></g><g></g></svg></g></svg></g></svg></g></svg></g><defs></defs></svg><rect width="448" height="360" fill="none" stroke="none" visibility="hidden"></rect></g></svg></g></svg>